<svg id="w3c_1_" data-name="w3c (1)" xmlns="http://www.w3.org/2000/svg" width="288.511" height="288.511" viewBox="0 0 288.511 288.511">
  <path id="Path_26" data-name="Path 26" d="M27.657,176.879a4.354,4.354,0,0,0-4.354,4.354v83.944a4.354,4.354,0,0,0,8.708,0V181.233a4.354,4.354,0,0,0-4.354-4.354Z" transform="translate(-10.172 -77.208)" fill="#dedde0"/>
  <path id="Path_27" data-name="Path 27" d="M34.971,372.488h8.743V302.546H34.971a34.971,34.971,0,1,0,0,69.942Z" transform="translate(0 -132.062)" fill="#724aa1"/>
  <path id="Path_28" data-name="Path 28" d="M412.138,372.488H403.4V302.546h8.743a34.971,34.971,0,1,1,0,69.942Z" transform="translate(-176.083 -132.062)" fill="#724aa1"/>
  <path id="Path_29" data-name="Path 29" d="M265.118,279.951a83.06,83.06,0,0,1-83.057,83.057H129.6A83.055,83.055,0,0,1,46.55,279.951a109.284,109.284,0,0,1,218.568,0Z" transform="translate(-20.319 -74.498)" fill="#9778af"/>
  <path id="Path_30" data-name="Path 30" d="M220.3,191.71H211.9a8.715,8.715,0,0,0-6.16,2.549l-21.922,21.928a8.711,8.711,0,0,1-14.868-6.16v-9.609a8.709,8.709,0,0,0-8.709-8.709h-8.912a34.7,34.7,0,0,1-20.25-6.491,8.678,8.678,0,0,0-13.167,4.279C103.579,229.86,95.6,299.79,165.567,363.009H129.6A83.056,83.056,0,0,1,46.55,279.951,109.286,109.286,0,0,1,220.3,191.71Z" transform="translate(-20.319 -74.498)" fill="#8259a5"/>
  <path id="Path_31" data-name="Path 31" d="M259.2,323.971a52.454,52.454,0,0,1-52.455,52.455h-61.2a52.455,52.455,0,1,1,0-104.909h61.2A52.453,52.453,0,0,1,259.2,323.971Z" transform="translate(-40.634 -118.518)" fill="#f4f4f5"/>
  <path id="Path_32" data-name="Path 32" d="M158.073,378.436H145.549a52.463,52.463,0,0,1-16.343-102.314c-2.787,30.2,2.705,66.4,28.866,102.314Z" transform="translate(-40.634 -120.528)" fill="#dedde0"/>
  <path id="Path_33" data-name="Path 33" d="M369.781,30.271V74.644a30.272,30.272,0,0,1-30.271,30.271H272.848a8.715,8.715,0,0,0-6.16,2.549l-20.616,20.61A4.352,4.352,0,0,1,238.64,125V113.624a8.709,8.709,0,0,0-8.709-8.709H220.8A34.617,34.617,0,0,1,186.185,70.3V30.271A30.267,30.267,0,0,1,216.45,0H339.51a30.268,30.268,0,0,1,30.271,30.271Z" transform="translate(-81.27 0)" fill="#b4e9f1"/>
  <path id="Path_34" data-name="Path 34" d="M280.669,104.916h-7.821a8.715,8.715,0,0,0-6.16,2.549l-20.616,20.61A4.352,4.352,0,0,1,238.64,125V113.624a8.709,8.709,0,0,0-8.709-8.709H220.8A34.617,34.617,0,0,1,186.185,70.3V30.271A30.267,30.267,0,0,1,216.45,0h41.18c-8.2,15.38-17.294,70.918,23.039,104.916Z" transform="translate(-81.27)" fill="#81d8e7"/>
  <circle id="Ellipse_6" data-name="Ellipse 6" cx="13.114" cy="13.114" r="13.114" transform="translate(4.371 96.17)" fill="#5972a5"/>
  <circle id="Ellipse_7" data-name="Ellipse 7" cx="13.114" cy="13.114" r="13.114" transform="translate(183.598 39.342)" fill="#7888af"/>
  <circle id="Ellipse_8" data-name="Ellipse 8" cx="13.114" cy="13.114" r="13.114" transform="translate(236.054 39.342)" fill="#7888af"/>
  <circle id="Ellipse_9" data-name="Ellipse 9" cx="13.114" cy="13.114" r="13.114" transform="translate(131.141 39.342)" fill="#5972a5"/>
  <path id="Path_35" data-name="Path 35" d="M159.169,363.933c0,7.8-7.935,14.13-17.732,14.135s-17.742-6.315-17.746-14.117,7.935-14.13,17.732-14.135,17.742,6.316,17.746,14.117Z" transform="translate(-53.992 -152.696)" fill="#ffa1ac"/>
  <path id="Path_36" data-name="Path 36" d="M294.32,363.865c0,7.8,7.949,14.122,17.746,14.117s17.735-6.333,17.732-14.135-7.949-14.122-17.746-14.117S294.316,356.063,294.32,363.865Z" transform="translate(-128.471 -152.658)" fill="#ffa1ac"/>
  <g id="Group_69" data-name="Group 69" transform="translate(84.971 183.034)">
    <path id="Path_37" data-name="Path 37" d="M244.4,354.394c-.006-10.746-7.79-11.752-17.393-11.747s-17.387,1.018-17.382,11.764,7.795,19.453,17.4,19.448S244.4,365.14,244.4,354.394Z" transform="translate(-176.472 -332.6)" fill="#495560"/>
    <path id="Path_38" data-name="Path 38" d="M155.147,342.041a4.354,4.354,0,0,1-4.354-4.352,12.8,12.8,0,0,1,25.595-.013,4.354,4.354,0,0,1-8.708,0,4.089,4.089,0,1,0-8.177,0A4.354,4.354,0,0,1,155.147,342.041Z" transform="translate(-150.793 -324.847)" fill="#495560"/>
    <path id="Path_39" data-name="Path 39" d="M289.082,341.974a4.354,4.354,0,0,1-4.354-4.352,12.8,12.8,0,0,1,25.6-.012,4.354,4.354,0,1,1-8.708,0,4.089,4.089,0,0,0-8.177,0A4.356,4.356,0,0,1,289.082,341.974Z" transform="translate(-209.256 -324.818)" fill="#495560"/>
  </g>
</svg>
